<svg viewBox="0 -31 512 512" xmlns="http://www.w3.org/2000/svg">
    <path fill="#fff" d="m15 450h482c8.289062 0 15-6.710938 15-15v-285h-512v285c0 8.289062 6.710938 15 15 15zm161.605469-70.605469c5.859375 5.859375 5.859375 15.351563 0 21.210938s-15.351563 5.859375-21.210938 0l-60-60c-5.859375-5.859375-5.859375-15.351563 0-21.210938l60-60c5.859375-5.859375 15.351563-5.859375 21.210938 0s5.859375 15.351563 0 21.210938l-49.394531 49.394531zm122.8125-102.683593-60 120c-3.691407 7.359374-12.648438 10.421874-20.128907 6.707031-7.410156-3.707031-10.414062-12.714844-6.707031-20.128907l60-120c3.734375-7.394531 12.714844-10.367187 20.128907-6.707031 7.410156 3.707031 10.414062 12.714844 6.707031 20.128907zm117.1875 63.894531-60 60c-5.859375 5.859375-15.351563 5.859375-21.210938 0s-5.859375-15.351563 0-21.210938l49.394531-49.394531-49.394531-49.394531c-5.859375-5.859375-5.859375-15.351563 0-21.210938s15.351563-5.859375 21.210938 0l60 60c5.859375 5.859375 5.859375 15.351563 0 21.210938zm-340.605469-145.605469h360c8.289062 0 15 6.710938 15 15s-6.710938 15-15 15h-360c-8.289062 0-15-6.710938-15-15s6.710938-15 15-15zm0 0" />
    <path fill="#fff" d="m512 15c0-8.289062-6.710938-15-15-15h-482c-8.289062 0-15 6.710938-15 15v105h512zm-286 60h-150c-8.289062 0-15-6.710938-15-15s6.710938-15 15-15h150c8.289062 0 15 6.710938 15 15s-6.710938 15-15 15zm90 0c-8.285156 0-15-6.714844-15-15s6.714844-15 15-15 15 6.714844 15 15-6.714844 15-15 15zm60 0c-8.285156 0-15-6.714844-15-15s6.714844-15 15-15 15 6.714844 15 15-6.714844 15-15 15zm60 0c-8.285156 0-15-6.714844-15-15s6.714844-15 15-15 15 6.714844 15 15-6.714844 15-15 15zm0 0" />
</svg>