<svg id="Discord-Logo-Black" xmlns="http://www.w3.org/2000/svg" width="42.666" height="48.761" viewBox="0 0 42.666 48.761">
  <path id="Path_1" data-name="Path 1" d="M96.687,103.9a2.716,2.716,0,1,0,2.487,2.706A2.6,2.6,0,0,0,96.687,103.9Zm8.9,0a2.716,2.716,0,1,0,2.487,2.706A2.6,2.6,0,0,0,105.586,103.9Z" transform="translate(-79.767 -83.445)" fill="#fff"/>
  <path id="Path_2" data-name="Path 2" d="M72.668,20H40a5.01,5.01,0,0,0-5,5.022V57.985a5.01,5.01,0,0,0,5,5.022H67.645L66.353,58.5l3.121,2.9,2.95,2.731,5.242,4.632V25.022a5.01,5.01,0,0,0-5-5.022ZM63.257,51.841s-.878-1.048-1.609-1.975a7.693,7.693,0,0,0,4.413-2.9,13.951,13.951,0,0,1-2.8,1.438,16.047,16.047,0,0,1-3.535,1.048,17.079,17.079,0,0,1-6.315-.024,20.465,20.465,0,0,1-3.584-1.048,14.287,14.287,0,0,1-1.78-.829c-.073-.049-.146-.073-.219-.122a.337.337,0,0,1-.1-.073c-.439-.244-.683-.414-.683-.414a7.583,7.583,0,0,0,4.267,2.877c-.731.926-1.633,2.024-1.633,2.024-5.388-.171-7.436-3.706-7.436-3.706a32.649,32.649,0,0,1,3.511-14.214,12.056,12.056,0,0,1,6.851-2.56l.244.293a16.448,16.448,0,0,0-6.412,3.194s.536-.293,1.438-.707A18.309,18.309,0,0,1,53.407,32.6a2.4,2.4,0,0,1,.414-.049,20.629,20.629,0,0,1,4.925-.049,19.874,19.874,0,0,1,7.339,2.341,16.226,16.226,0,0,0-6.071-3.1l.341-.39a12.056,12.056,0,0,1,6.851,2.56,32.649,32.649,0,0,1,3.511,14.214S68.645,51.67,63.257,51.841Z" transform="translate(-35 -20)" fill="#fff"/>
</svg>
