<svg id="email" xmlns="http://www.w3.org/2000/svg" width="64.014" height="48.761" viewBox="0 0 64.014 48.761">
  <g id="Group_2" data-name="Group 2" transform="translate(0 0)">
    <path id="Path_4" data-name="Path 4" d="M58.388,61H5.626A5.636,5.636,0,0,0,0,66.626v37.508a5.635,5.635,0,0,0,5.626,5.626H58.388a5.635,5.635,0,0,0,5.626-5.626V66.626A5.635,5.635,0,0,0,58.388,61Zm-.777,3.751L32.126,90.236,6.421,64.751ZM3.751,103.358V67.385L21.815,85.294ZM6.4,106.01,24.478,87.935l6.334,6.279a1.875,1.875,0,0,0,2.646-.006l6.176-6.176L57.611,106.01Zm53.86-2.652L42.286,85.38,60.263,67.4Z" transform="translate(0 -61)" fill="#fff"/>
  </g>
</svg>
