<svg xmlns="http://www.w3.org/2000/svg" width="52.417" height="50.234" viewBox="0 0 52.417 50.234">
  <path id="github" d="M26.209.5A25.982,25.982,0,0,0,0,26.254,25.8,25.8,0,0,0,17.92,50.69c1.31.242,1.791-.555,1.791-1.238,0-.612-.022-2.232-.033-4.379-7.29,1.553-8.828-3.455-8.828-3.455C9.658,38.645,7.935,37.85,7.935,37.85c-2.374-1.6.183-1.564.183-1.564a5.483,5.483,0,0,1,4.014,2.654c2.337,3.938,6.135,2.8,7.633,2.143a5.453,5.453,0,0,1,1.66-3.444c-5.821-.644-11.938-2.859-11.938-12.726a9.84,9.84,0,0,1,2.7-6.91,9.011,9.011,0,0,1,.229-6.816s2.195-.69,7.207,2.641a25.129,25.129,0,0,1,13.1,0c4.98-3.331,7.175-2.641,7.175-2.641A9.26,9.26,0,0,1,40.163,18a9.879,9.879,0,0,1,2.686,6.91c0,9.894-6.126,12.071-11.958,12.7a6.111,6.111,0,0,1,1.769,4.766c0,3.446-.033,6.216-.033,7.052,0,.675.459,1.481,1.8,1.223a25.719,25.719,0,0,0,17.988-24.4A25.986,25.986,0,0,0,26.209.5Z" transform="translate(0 -0.5)" fill="#fff"/>
</svg>
