<svg id="WhatsApp_Logo" xmlns="http://www.w3.org/2000/svg" width="48.528" height="48.761" viewBox="0 0 48.528 48.761">
  <g id="WA_Logo" transform="translate(0 0)">
    <g id="Group_1" data-name="Group 1" transform="translate(0)">
      <path id="Path_3" data-name="Path 3" d="M472.248,332.506a24.168,24.168,0,0,0-38.03,29.154l-3.428,12.521,12.809-3.36a24.131,24.131,0,0,0,11.546,2.94h.01a24.173,24.173,0,0,0,17.092-41.256Zm-17.092,37.175h-.008a20.059,20.059,0,0,1-10.222-2.8l-.733-.436-7.6,1.994,2.029-7.411-.477-.76a20.083,20.083,0,1,1,17.014,9.412Zm11.016-15.041c-.6-.3-3.572-1.762-4.126-1.964s-.956-.3-1.358.3-1.559,1.965-1.912,2.367-.7.453-1.308.151a16.506,16.506,0,0,1-4.856-3,18.2,18.2,0,0,1-3.359-4.182c-.352-.6-.037-.931.264-1.232.271-.271.6-.706.906-1.058a4.119,4.119,0,0,0,.6-1.007,1.112,1.112,0,0,0-.05-1.058c-.151-.3-1.358-3.274-1.862-4.482-.49-1.177-.988-1.017-1.358-1.037-.352-.017-.754-.021-1.157-.021a2.218,2.218,0,0,0-1.61.755,6.772,6.772,0,0,0-2.113,5.036c0,2.972,2.163,5.843,2.465,6.246s4.258,6.5,10.314,9.117a34.6,34.6,0,0,0,3.442,1.272,8.272,8.272,0,0,0,3.8.24c1.16-.174,3.572-1.461,4.075-2.871a5.053,5.053,0,0,0,.352-2.871C467.178,355.093,466.775,354.943,466.172,354.64Z" transform="translate(-430.79 -325.42)" fill="#fff" fill-rule="evenodd"/>
    </g>
  </g>
</svg>
